  0
SECTION
  2
HEADER
  9
$ANGBASE
  50
0.0
  9
$ANGDIR
  70
1
  9
$MEASUREMENT
  70
0
  0
ENDSEC
  0
SECTION
  2
TABLES
  0
TABLE
  2
LTYPE
  70
4
  0
LTYPE
  5
40F
  2
CONTINUOUS
  70
0
  3
Solid line
  72
65
  73
0
  40
0.0
  0
LTYPE
  5
410
  2
DASHDOT
 70
0
  3
Dash Dot ____ _ ____ _
 72
65
 73
4
 40
2.0
 49
1.25
 49
-0.25
 49
0.25
 49
-0.25
  0
LTYPE
  5
411
  2
DASHED
 70
0
  3
Dashed __ __ __ __ __
 72
65
 73
2
 40
0.75
 49
0.5
 49
-0.25
  0
LTYPE
  5
43B
  2
DOTTED
 70
0
  3
Dotted .  .  .  .
 72
65
 73
2
 40
0.2
 49
0.0
 49
-0.2
  0
ENDTAB
  0
TABLE
  2
STYLE
  70
4
  0
STYLE
  2
KICAD
  70
0
  40
0
  41
1
  42
1
  50
0
  71
0
  3
isocp.shx
  0
STYLE
  2
KICADB
  70
0
  40
0
  41
1
  42
1
  50
0
  71
0
  3
isocp.shx
  0
STYLE
  2
KICADI
  70
0
  40
0
  41
1
  42
1
  50
15
  71
0
  3
isocp.shx
  0
STYLE
  2
KICADBI
  70
0
  40
0
  41
1
  42
1
  50
15
  71
0
  3
isocp.shx
  0
ENDTAB
  0
TABLE
  2
LAYER
  70
1
  0
LAYER
  2
BLACK
  70
0
  62
7
  6
CONTINUOUS
  0
ENDTAB
  0
ENDSEC
  0
SECTION
  2
ENTITIES
0
ARC
8
BLACK
10
5.25551
20
-4.65
40
0.0787412
50
0.287221
51
90
0
LINE
8
BLACK
6
CONTINUOUS
10
3.28307
20
-5.35866
11
3.32244
21
-5.31929
0
LINE
8
BLACK
6
CONTINUOUS
10
4.07244
20
-5.31929
11
4.07244
21
-4.84685
0
LINE
8
BLACK
6
CONTINUOUS
10
4.28701
20
-5.35866
11
4.78307
21
-5.35866
0
ARC
8
BLACK
10
1.56457
20
-5.51614
40
0.0787401
50
-180
51
-90
0
LINE
8
BLACK
6
CONTINUOUS
10
1.99764
20
-4.84685
11
1.99764
21
-5.31929
0
LINE
8
BLACK
6
CONTINUOUS
10
4.24764
20
-5.31929
11
4.28701
21
-5.35866
0
LINE
8
BLACK
6
CONTINUOUS
10
2.78701
20
-4.80748
11
2.74764
21
-4.84685
0
LINE
8
BLACK
6
CONTINUOUS
10
2.03701
20
-4.80748
11
1.99764
21
-4.84685
0
LINE
8
BLACK
6
CONTINUOUS
10
1.56457
20
-5.59488
11
2.01142
21
-5.59488
0
LINE
8
BLACK
6
CONTINUOUS
10
2.57244
20
-4.84685
11
2.53307
21
-4.80748
0
LINE
8
BLACK
6
CONTINUOUS
10
3.32244
20
-4.84685
11
3.28307
21
-4.80748
0
LINE
8
BLACK
6
CONTINUOUS
10
1.48583
20
-4.65
11
1.48583
21
-5.51614
0
LINE
8
BLACK
6
CONTINUOUS
10
2.74764
20
-4.84685
11
2.74764
21
-5.31929
0
LINE
8
BLACK
6
CONTINUOUS
10
4.07244
20
-4.84685
11
4.03307
21
-4.80748
0
LINE
8
BLACK
6
CONTINUOUS
10
3.53701
20
-4.80748
11
3.49764
21
-4.84685
0
LINE
8
BLACK
6
CONTINUOUS
10
4.82244
20
-4.84685
11
4.78307
21
-4.80748
0
LINE
8
BLACK
6
CONTINUOUS
10
2.78701
20
-5.35866
11
3.28307
21
-5.35866
0
LINE
8
BLACK
6
CONTINUOUS
10
5.25551
20
-5.59488
11
5.07874
21
-5.59488
0
LINE
8
BLACK
6
CONTINUOUS
10
2.03701
20
-5.35866
11
2.53307
21
-5.35866
0
LINE
8
BLACK
6
CONTINUOUS
10
3.28307
20
-4.80748
11
2.78701
21
-4.80748
0
LINE
8
BLACK
6
CONTINUOUS
10
3.53701
20
-5.35866
11
4.03307
21
-5.35866
0
LINE
8
BLACK
6
CONTINUOUS
10
4.03307
20
-5.35866
11
4.07244
21
-5.31929
0
LINE
8
BLACK
6
CONTINUOUS
10
4.78307
20
-5.35866
11
4.82244
21
-5.31929
0
ARC
8
BLACK
10
1.56457
20
-4.65
40
0.0787401
50
-270
51
-180
0
LINE
8
BLACK
6
CONTINUOUS
10
4.78307
20
-4.80748
11
4.28701
21
-4.80748
0
LINE
8
BLACK
6
CONTINUOUS
10
1.99764
20
-5.31929
11
2.03701
21
-5.35866
0
LINE
8
BLACK
6
CONTINUOUS
10
2.01142
20
-5.59488
11
5.07874
21
-5.59488
0
LINE
8
BLACK
6
CONTINUOUS
10
4.24764
20
-4.84685
11
4.24764
21
-5.31929
0
LINE
8
BLACK
6
CONTINUOUS
10
2.53307
20
-4.80748
11
2.03701
21
-4.80748
0
LINE
8
BLACK
6
CONTINUOUS
10
2.57244
20
-5.31929
11
2.57244
21
-4.84685
0
LINE
8
BLACK
6
CONTINUOUS
10
4.28701
20
-4.80748
11
4.24764
21
-4.84685
0
LINE
8
BLACK
6
CONTINUOUS
10
4.82244
20
-5.31929
11
4.82244
21
-4.84685
0
LINE
8
BLACK
6
CONTINUOUS
10
3.49764
20
-5.31929
11
3.53701
21
-5.35866
0
LINE
8
BLACK
6
CONTINUOUS
10
2.74764
20
-5.31929
11
2.78701
21
-5.35866
0
LINE
8
BLACK
6
CONTINUOUS
10
3.49764
20
-4.84685
11
3.49764
21
-5.31929
0
LINE
8
BLACK
6
CONTINUOUS
10
2.53307
20
-5.35866
11
2.57244
21
-5.31929
0
ARC
8
BLACK
10
5.25551
20
-5.51614
40
0.0787401
50
-90
51
2.86479e-05
0
LINE
8
BLACK
6
CONTINUOUS
10
4.03307
20
-4.80748
11
3.53701
21
-4.80748
0
LINE
8
BLACK
6
CONTINUOUS
10
3.32244
20
-5.31929
11
3.32244
21
-4.84685
0
LINE
8
BLACK
6
CONTINUOUS
10
5.33425
20
-4.65
11
5.33425
21
-5.51614
0
LINE
8
BLACK
6
CONTINUOUS
10
1.56457
20
-4.57126
11
5.25551
21
-4.57126
0
CIRCLE
8
BLACK
10
5.11772
20
-5.35866
40
0.06
0
CIRCLE
8
BLACK
10
1.70236
20
-4.80748
40
0.06
0
CIRCLE
8
BLACK
10
1.70236
20
-5.35866
40
0.06
0
CIRCLE
8
BLACK
10
5.11772
20
-4.80748
40
0.06
  0
ENDSEC
  0
EOF
